<svg xmlns="http://www.w3.org/2000/svg" width="15.544" height="15.544" viewBox="0 0 15.544 15.544"><defs><style>.a{fill:#707070;}</style></defs><g transform="translate(0 -0.004)"><g transform="translate(0 1.114)"><path class="a" d="M12.768,40.8a.555.555,0,0,0-.555.555v5.551a.555.555,0,0,1-.555.555H1.665a.555.555,0,0,1-.555-.555V35.8a.555.555,0,0,1,.555-.555H8.327a.555.555,0,1,0,0-1.11H1.665A1.665,1.665,0,0,0,0,35.8v11.1a1.665,1.665,0,0,0,1.665,1.665h9.993a1.665,1.665,0,0,0,1.665-1.665V41.354A.555.555,0,0,0,12.768,40.8Z" transform="translate(0 -34.137)"/></g><g transform="translate(3.331 0.004)"><path class="a" d="M114,.626a2.125,2.125,0,0,0-3.006,0l-7.312,7.312a.561.561,0,0,0-.134.217l-1.11,3.331a.555.555,0,0,0,.526.731.564.564,0,0,0,.175-.028l3.331-1.11a.555.555,0,0,0,.217-.134L114,3.632A2.125,2.125,0,0,0,114,.626Zm-.785,2.221L106,10.064l-2.156.72.718-2.153,7.22-7.217a1.014,1.014,0,1,1,1.436,1.433Z" transform="translate(-102.409 -0.004)"/></g></g></svg>